<svg preserveAspectRatio="none" xmlns:svg="http://www.w3.org/2000/svg" xmlns="http://www.w3.org/2000/svg" version="1.1" id="svg2" height="30" width="100">
    <defs id="defs4"/>
    <metadata id="metadata7"/>
    <g id="layer1" transform="translate(0,-3127.0866)">
        <path d="m4.22 3130.38c25.68-1.05 70.27 1.28 91.48 0 0.98-0.06 1.8 1.55 1.77 3.47-0.08 5.65-0.53 11.29 0 16.94 0.18 1.91-0.79 3.46-1.77 3.47-24.16 0.17-67.68-0.66-91.48 0-0.98 0.03-1.42-1.58-1.77-3.47-1.09-5.87-0.47-11.38 0-16.94 0.16-1.91 0.79-3.43 1.77-3.47z" id="rect2985" style="fill:#fff;stroke-width:1.12;stroke:#000"/>
        <path d="m13.61 3133.78c0.29 5.44 0.28 10.95-0.37 16.63" id="path3180" style="fill:none;stroke:#000"/>
        <path d="m11.73 3133.78 4-0.25" id="path3182" style="fill:none;stroke:#000"/>
        <path d="m11.48 3150.66 4-0.25" id="path3182-0" style="fill:none;stroke:#000"/>
    </g>
</svg>